<svg width="124" height="125" viewBox="0 0 124 125" fill="none" xmlns="http://www.w3.org/2000/svg">
<g filter="url(#filter0_dd_88_4519)">
<rect x="41" y="21" width="67" height="43" rx="4" fill="white"/>
<rect x="40.5" y="20.5" width="68" height="44" rx="4.5" stroke="#D6DCE5"/>
<path d="M62.6707 36.8679C63.1177 36.3109 63.421 35.5631 63.341 34.7988C62.6867 34.8312 61.8882 35.2289 61.4259 35.7863C61.0108 36.2636 60.6434 37.0428 60.7392 37.775C61.4737 37.8385 62.2076 37.4092 62.6707 36.8679Z" fill="#000008"/>
<path d="M63.3327 37.918C62.266 37.8547 61.359 38.5211 60.8496 38.5211C60.3399 38.5211 59.5598 37.9499 58.7161 37.9653C57.618 37.9813 56.599 38.5999 56.0417 39.5837C54.8955 41.5517 55.7393 44.471 56.8539 46.0739C57.3952 46.8669 58.0475 47.7401 58.907 47.7087C59.7192 47.6769 60.0375 47.1848 61.0247 47.1848C62.0111 47.1848 62.2979 47.7087 63.1576 47.6928C64.0491 47.6769 64.6065 46.8994 65.1477 46.1057C65.7687 45.2017 66.0229 44.3288 66.0389 44.2809C66.0229 44.2651 64.3198 43.6142 64.304 41.6625C64.2879 40.0283 65.6411 39.251 65.7048 39.2028C64.9406 38.0768 63.7466 37.9499 63.3327 37.918Z" fill="#000008"/>
<path d="M72.6208 35.7064C74.9393 35.7064 76.5537 37.2985 76.5537 39.6165C76.5537 41.9427 74.906 43.5431 72.5626 43.5431H69.9956V47.6099H68.141V35.7064L72.6208 35.7064ZM69.9956 41.9922H72.1237C73.7385 41.9922 74.6575 41.1261 74.6575 39.6247C74.6575 38.1235 73.7385 37.2655 72.132 37.2655H69.9956V41.9922Z" fill="#000008"/>
<path d="M77.0383 45.1434C77.0383 43.6255 78.2058 42.6934 80.2761 42.5779L82.6607 42.4377V41.7696C82.6607 40.8044 82.0065 40.227 80.9137 40.227C79.8784 40.227 79.2325 40.7218 79.0753 41.4973H77.3861C77.4855 39.9299 78.8268 38.775 80.9798 38.775C83.0913 38.775 84.441 39.8887 84.441 41.6292V47.6099H82.7268V46.1828H82.6856C82.1806 47.148 81.0792 47.7583 79.9365 47.7583C78.2307 47.7583 77.0383 46.7025 77.0383 45.1434ZM82.6607 44.3598V43.6751L80.516 43.807C79.4478 43.8813 78.8434 44.3515 78.8434 45.094C78.8434 45.8528 79.4727 46.3478 80.4333 46.3478C81.6836 46.3478 82.6607 45.4898 82.6607 44.3598Z" fill="#000008"/>
<path d="M86.0592 50.8024V49.3587C86.1915 49.3917 86.4895 49.3917 86.6387 49.3917C87.4667 49.3917 87.9139 49.0453 88.187 48.1544C88.187 48.1378 88.3445 47.6264 88.3445 47.6182L85.198 38.9318H87.1354L89.3383 45.9931H89.3712L91.574 38.9318H93.4619L90.1992 48.0635C89.4542 50.1672 88.593 50.8436 86.7879 50.8436C86.6387 50.8436 86.1915 50.827 86.0592 50.8024Z" fill="#000008"/>
</g>
<defs>
<filter id="filter0_dd_88_4519" x="0" y="0" width="149" height="125" filterUnits="userSpaceOnUse" color-interpolation-filters="sRGB">
<feFlood flood-opacity="0" result="BackgroundImageFix"/>
<feColorMatrix in="SourceAlpha" type="matrix" values="0 0 0 0 0 0 0 0 0 0 0 0 0 0 0 0 0 0 127 0" result="hardAlpha"/>
<feOffset dy="2"/>
<feGaussianBlur stdDeviation="10"/>
<feColorMatrix type="matrix" values="0 0 0 0 0.717647 0 0 0 0 0.717647 0 0 0 0 0.717647 0 0 0 0.08 0"/>
<feBlend mode="normal" in2="BackgroundImageFix" result="effect1_dropShadow_88_4519"/>
<feColorMatrix in="SourceAlpha" type="matrix" values="0 0 0 0 0 0 0 0 0 0 0 0 0 0 0 0 0 0 127 0" result="hardAlpha"/>
<feOffset dy="20"/>
<feGaussianBlur stdDeviation="20"/>
<feColorMatrix type="matrix" values="0 0 0 0 0.717647 0 0 0 0 0.717647 0 0 0 0 0.717647 0 0 0 0.08 0"/>
<feBlend mode="normal" in2="effect1_dropShadow_88_4519" result="effect2_dropShadow_88_4519"/>
<feBlend mode="normal" in="SourceGraphic" in2="effect2_dropShadow_88_4519" result="shape"/>
</filter>
</defs>
</svg>
