<svg width="37" height="36" viewBox="0 0 37 36" fill="none" xmlns="http://www.w3.org/2000/svg">
<path d="M36.4881 23.869C36.2888 23.3217 35.6838 23.0394 35.1364 23.2387L31.8983 24.4173C31.6475 23.7283 25.4285 6.64082 25.0452 5.58789C24.9496 5.32508 24.7535 5.11099 24.4999 4.9928C24.2464 4.87454 23.9563 4.86189 23.6935 4.95764L10.7908 9.65402C9.06727 4.93219 7.68765 1.15193 7.52096 0.693942C7.42527 0.431059 7.22912 0.216971 6.97559 0.0987826C6.72221 -0.0194055 6.43213 -0.032061 6.16918 0.0636285C5.82342 0.18948 1.68358 1.85747 1.21267 2.04724C0.67244 2.26491 0.411041 2.87933 0.628709 3.41958C0.846377 3.95983 1.46078 4.22117 2.00101 4.00356C3.21893 3.51281 4.86852 2.84945 5.91024 2.43337C7.55927 6.95306 13.9838 24.5519 15.8766 29.7369C14.4368 30.0328 13.3507 31.31 13.3507 32.8361C13.3507 34.5807 14.7699 36 16.5144 36C18.2589 36 19.6782 34.5807 19.6782 32.8361C19.6782 32.2636 19.5246 31.7267 19.2576 31.2629L35.8578 25.2208C36.4052 25.0215 36.6873 24.4163 36.4881 23.869ZM29.9163 25.1387L18.0235 29.4674C17.4866 27.9968 16.4043 25.032 15.1303 21.542L27.0308 17.2105L29.9163 25.1387ZM23.424 7.30024L26.3095 15.2284L14.4071 19.5607C13.4643 16.9779 12.4583 14.222 11.5141 11.6352L23.424 7.30024ZM16.5144 33.8908C15.9329 33.8908 15.4599 33.4176 15.4599 32.8361C15.4599 32.2546 15.9329 31.7815 16.5144 31.7815C17.0959 31.7815 17.569 32.2546 17.569 32.8361C17.569 33.4176 17.0959 33.8908 16.5144 33.8908Z" fill="#868889"/>
</svg>
