<svg width="27" height="26" viewBox="0 0 27 26" fill="none" xmlns="http://www.w3.org/2000/svg">
<g clip-path="url(#clip0_91_4982)">
<path d="M25.8085 3.55441C25.4261 3.17127 24.8055 3.17061 24.423 3.55279L12.6675 15.2773L8.42612 10.6707C8.05963 10.2729 7.44 10.2471 7.04152 10.6136C6.64334 10.9801 6.61785 11.6 6.98434 11.9982L11.9165 17.3546C12.0971 17.5509 12.3499 17.6649 12.6165 17.6705C12.6236 17.6708 12.6306 17.6708 12.6374 17.6708C12.8964 17.6708 13.1456 17.5679 13.3292 17.385L25.8066 4.94028C26.1901 4.55815 26.1907 3.93756 25.8085 3.55441Z" fill="#1B5E37"/>
<path d="M25.5721 12.0201C25.0308 12.0201 24.5922 12.4587 24.5922 13C24.5922 19.0878 19.6398 24.0402 13.552 24.0402C7.46455 24.0402 2.5118 19.0878 2.5118 13C2.5118 6.91255 7.46455 1.9598 13.552 1.9598C14.0932 1.9598 14.5319 1.52115 14.5319 0.979926C14.5319 0.438648 14.0932 0 13.552 0C6.38372 0 0.552002 5.83172 0.552002 13C0.552002 20.168 6.38372 26 13.552 26C20.72 26 26.552 20.168 26.552 13C26.552 12.4588 26.1134 12.0201 25.5721 12.0201Z" fill="#1B5E37"/>
</g>
<defs>
<clipPath id="clip0_91_4982">
<rect width="26" height="26" fill="white" transform="translate(0.552002)"/>
</clipPath>
</defs>
</svg>
