<svg width="16" height="16" viewBox="0 0 16 16" fill="none" xmlns="http://www.w3.org/2000/svg">
<path d="M8.04673 14.6535C7.10673 14.6535 6.16006 14.2935 5.44673 13.5801L2.42673 10.5601C1.69339 9.82678 1.30673 8.81345 1.35339 7.78012L1.51339 4.44678C1.58673 2.85345 2.84673 1.59345 4.44673 1.51345L7.78006 1.35345C8.81339 1.31345 9.82673 1.69345 10.5601 2.42678L13.5801 5.44678C15.0134 6.88012 15.0134 9.22012 13.5801 10.6535L10.6534 13.5801C9.93339 14.2935 8.99339 14.6535 8.04673 14.6535ZM3.13339 9.84678L6.15339 12.8668C6.66006 13.3735 7.33339 13.6535 8.04673 13.6535C8.76006 13.6535 9.43339 13.3735 9.94006 12.8668L12.8667 9.94012C13.3734 9.43345 13.6534 8.76012 13.6534 8.04678C13.6534 7.33345 13.3734 6.66012 12.8667 6.15345L9.84673 3.13345C9.31339 2.60012 8.57339 2.31345 7.82673 2.35345L4.49339 2.51345C3.40673 2.56012 2.56006 3.40678 2.50673 4.48678L2.34673 7.82012C2.31339 8.57345 2.60006 9.31345 3.13339 9.84678Z" fill="#181001"/>
<path d="M6.33329 8.50033C5.13996 8.50033 4.16663 7.52699 4.16663 6.33366C4.16663 5.14033 5.13996 4.16699 6.33329 4.16699C7.52663 4.16699 8.49996 5.14033 8.49996 6.33366C8.49996 7.52699 7.52663 8.50033 6.33329 8.50033ZM6.33329 5.16699C5.69329 5.16699 5.16663 5.69366 5.16663 6.33366C5.16663 6.97366 5.69329 7.50033 6.33329 7.50033C6.97329 7.50033 7.49996 6.97366 7.49996 6.33366C7.49996 5.69366 6.97329 5.16699 6.33329 5.16699Z" fill="#181001"/>
</svg>
