<svg width="43" height="30" viewBox="0 0 43 30" fill="none" xmlns="http://www.w3.org/2000/svg">
<path d="M42.0568 10.5294C42.0568 10.5294 38.1229 5.27413 38.1205 5.27115C38.1195 5.26975 38.0337 5.11743 37.7694 5.03334L21.376 0.404386C21.2555 0.370413 21.1282 0.370413 21.0077 0.404386L4.6143 5.03334C4.6143 5.03334 4.39049 5.09792 4.256 5.27945C4.20215 5.35216 0.326954 10.5294 0.326954 10.5294C0.197034 10.7032 0.158021 10.9287 0.222234 11.136C0.286541 11.3433 0.446234 11.5073 0.65166 11.577L4.12095 12.7544V22.1693C4.12095 22.4435 4.28624 22.6906 4.53973 22.7953L20.9332 29.5695C20.9819 29.5897 21.0437 29.6209 21.1919 29.6209C21.34 29.6209 21.4505 29.5695 21.4505 29.5695L37.8441 22.7953C38.0976 22.6906 38.2628 22.4434 38.2628 22.1693V12.7542L41.732 11.5768C41.9375 11.5071 42.0972 11.343 42.1615 11.1358C42.2257 10.9287 42.1867 10.7032 42.0568 10.5294ZM1.97102 10.5939L5.06389 6.46115L6.31483 6.80573L13.355 8.74501L20.013 10.5792L16.1082 15.3919L1.97102 10.5939ZM20.5145 27.9304L5.47577 21.7162V13.2141L16.1195 16.8268C16.1908 16.8512 16.2642 16.8627 16.3371 16.8627C16.5373 16.8627 16.732 16.7737 16.8631 16.612L20.5146 12.1115L20.5145 27.9304ZM21.1919 9.49895L7.31975 5.67733L21.1919 1.76014L35.064 5.67733L21.1919 9.49895ZM36.908 21.7162L21.8692 27.9304V12.1117L25.5207 16.6121C25.6518 16.7737 25.8465 16.8628 26.0467 16.8628C26.1196 16.8628 26.193 16.8514 26.2644 16.827L36.908 13.2143V21.7162ZM26.2756 15.3921L22.3708 10.5794L37.3199 6.46115L40.4129 10.5939L26.2756 15.3921Z" fill="#1B5E37"/>
</svg>
