<svg width="39" height="39" viewBox="0 0 39 39" fill="none" xmlns="http://www.w3.org/2000/svg">
<path d="M13.478 32.0806L1.59435 26.5785C1.32898 26.4557 1.01621 26.4999 0.795473 26.6916C0.57466 26.8833 0.486795 27.1866 0.571095 27.4666L2.16247 32.7547L0.57102 38.0428C0.418464 38.5014 0.802678 39.0139 1.28241 38.9995C1.3881 38.9995 1.4946 38.977 1.59435 38.9308L13.478 33.4287C14.0441 33.178 14.0484 32.3327 13.478 32.0806ZM2.46966 36.8886L3.64926 32.9687C3.6913 32.8292 3.6913 32.6803 3.64926 32.5406L2.46966 28.6208L11.3982 32.7547L2.46966 36.8886Z" fill="#1B5E37"/>
<path d="M31.8828 0.97168C28.1969 0.97168 25.1982 3.97038 25.1982 7.65624C25.2421 11.2635 28.9473 15.1832 31.3229 17.9131C31.6027 18.249 32.1629 18.2498 32.4426 17.9131C34.8177 15.1846 38.5243 11.2623 38.5674 7.65632C38.5674 3.97038 35.5687 0.97168 31.8828 0.97168ZM31.8828 16.2996C29.9255 14.0787 26.6837 10.3882 26.6837 7.65624C26.6837 4.78946 29.016 2.45714 31.8828 2.45714C34.7496 2.45714 37.0819 4.78946 37.0819 7.65624C37.0819 10.3882 33.84 14.0787 31.8828 16.2996Z" fill="#1B5E37"/>
<path d="M31.883 4.68555C30.2449 4.68555 28.9121 6.0183 28.9121 7.65646C29.0615 11.5924 34.7052 11.5913 34.8539 7.65639C34.8539 6.0183 33.5212 4.68555 31.883 4.68555ZM31.883 9.142C31.0639 9.142 30.3976 8.47562 30.3976 7.65654C30.4723 5.68853 33.2941 5.68905 33.3685 7.65654C33.3685 8.47555 32.702 9.142 31.883 9.142Z" fill="#1B5E37"/>
<path d="M15.1714 18.1681H16.6568C17.6406 18.1318 17.6411 16.719 16.6568 16.6826H15.1714C14.1876 16.7189 14.1871 18.1318 15.1714 18.1681Z" fill="#1B5E37"/>
<path d="M9.22933 18.1685C9.2479 18.1684 9.26647 18.168 9.28511 18.1681H10.715C11.6986 18.132 11.6994 16.719 10.715 16.6826H9.28511C9.26216 16.6826 9.23921 16.6828 9.21641 16.6832C8.24217 16.733 8.25517 18.1361 9.22933 18.1685Z" fill="#1B5E37"/>
<path d="M17.5287 24.0347C17.5287 23.6245 17.1962 23.292 16.786 23.292H15.3005C14.3168 23.3282 14.3162 24.7411 15.3005 24.7775H16.786C17.1962 24.7775 17.5287 24.4449 17.5287 24.0347Z" fill="#1B5E37"/>
<path d="M10.8441 23.292H9.35861C8.37486 23.3282 8.37434 24.7411 9.35861 24.7775H10.8441C11.8279 24.7412 11.8283 23.3283 10.8441 23.292Z" fill="#1B5E37"/>
<path d="M6.07779 22.2719C6.55277 22.2777 6.92139 21.8094 6.79883 21.3485C6.70577 20.979 6.69827 20.582 6.77655 20.209C6.94478 19.2403 5.55707 18.9493 5.32259 19.9049C5.19833 20.4967 5.21036 21.1232 5.35794 21.7096C5.44239 22.0469 5.74512 22.2719 6.07779 22.2719Z" fill="#1B5E37"/>
<path d="M27.0551 18.1681H28.5406C29.5243 18.1318 29.5249 16.719 28.5406 16.6826H27.0551C26.0714 16.7189 26.0709 18.1318 27.0551 18.1681Z" fill="#1B5E37"/>
<path d="M29.231 31.5799C28.8675 31.7764 28.4772 31.9077 28.0708 31.9701C27.1015 32.1547 27.3231 33.5555 28.2964 33.4384C28.8716 33.3501 29.4238 33.1644 29.9376 32.8865C30.7859 32.3893 30.1121 31.142 29.231 31.5799Z" fill="#1B5E37"/>
<path d="M28.4619 24.9021C29.4143 25.1276 29.7939 23.7608 28.8501 23.4683C28.3142 23.3163 27.7413 23.2799 27.1841 23.2923C26.7739 23.2923 26.4414 23.6248 26.4414 24.035C26.4414 24.4452 26.7739 24.7777 27.1841 24.7777H27.523C27.8412 24.7778 28.157 24.8196 28.4619 24.9021Z" fill="#1B5E37"/>
<path d="M31.4958 26.4563C31.1024 26.5724 30.8776 26.9855 30.9937 27.3789C31.0908 27.7078 31.14 28.0496 31.14 28.395C30.979 29.7027 32.7547 29.71 32.6254 28.395C32.6254 27.9072 32.5558 27.4239 32.4184 26.9584C32.3023 26.565 31.8894 26.3403 31.4958 26.4563Z" fill="#1B5E37"/>
<path d="M17.7882 32.0117H16.3027C15.319 32.048 15.3184 33.4608 16.3027 33.4972H17.7882C18.7719 33.4609 18.7724 32.0481 17.7882 32.0117Z" fill="#1B5E37"/>
<path d="M23.7301 32.0117H22.2446C21.2609 32.048 21.2603 33.4608 22.2446 33.4972H23.7301C24.7138 33.4609 24.7143 32.0481 23.7301 32.0117Z" fill="#1B5E37"/>
<path d="M21.1133 18.1681H22.5987C23.5825 18.1318 23.583 16.719 22.5987 16.6826H21.1133C20.1295 16.7189 20.129 18.1318 21.1133 18.1681Z" fill="#1B5E37"/>
<path d="M23.4706 24.0347C23.4706 23.6245 23.1381 23.292 22.7279 23.292H21.2424C20.2587 23.3282 20.2581 24.7411 21.2424 24.7775H22.7279C23.1381 24.7775 23.4706 24.4449 23.4706 24.0347Z" fill="#1B5E37"/>
</svg>
