<svg width="45" height="26" viewBox="0 0 45 26" fill="none" xmlns="http://www.w3.org/2000/svg">
<path d="M12.4683 22.0003H8.80168C8.29568 22.0003 7.88501 21.5897 7.88501 21.0837C7.88501 20.5777 8.29568 20.167 8.80168 20.167H12.4683C12.9743 20.167 13.385 20.5777 13.385 21.0837C13.385 21.5897 12.9743 22.0003 12.4683 22.0003Z" fill="#868889"/>
<path d="M42.2601 22H39.9685C39.4625 22 39.0518 21.5893 39.0518 21.0833C39.0518 20.5773 39.4625 20.1667 39.9685 20.1667H41.4993L42.735 13.5813C42.7185 10.2117 39.8401 7.33333 36.3018 7.33333H30.283L27.3661 20.1667H32.6351C33.1411 20.1667 33.5518 20.5773 33.5518 21.0833C33.5518 21.5893 33.1411 22 32.6351 22H26.2185C25.9398 22 25.6758 21.8735 25.5016 21.6553C25.3275 21.439 25.2615 21.153 25.3238 20.8817L28.6568 6.215C28.7521 5.79517 29.1225 5.5 29.5515 5.5H36.3018C40.8503 5.5 44.5518 9.2015 44.5518 13.75L43.1603 21.252C43.0796 21.6865 42.702 22 42.2601 22Z" fill="#868889"/>
<path d="M36.3018 25.6667C33.7755 25.6667 31.7185 23.6115 31.7185 21.0833C31.7185 18.5552 33.7755 16.5 36.3018 16.5C38.8282 16.5 40.8852 18.5552 40.8852 21.0833C40.8852 23.6115 38.8282 25.6667 36.3018 25.6667ZM36.3018 18.3333C34.7857 18.3333 33.5518 19.5672 33.5518 21.0833C33.5518 22.5995 34.7857 23.8333 36.3018 23.8333C37.818 23.8333 39.0518 22.5995 39.0518 21.0833C39.0518 19.5672 37.818 18.3333 36.3018 18.3333Z" fill="#868889"/>
<path d="M16.1351 25.6667C13.6088 25.6667 11.5518 23.6115 11.5518 21.0833C11.5518 18.5552 13.6088 16.5 16.1351 16.5C18.6614 16.5 20.7184 18.5552 20.7184 21.0833C20.7184 23.6115 18.6614 25.6667 16.1351 25.6667ZM16.1351 18.3333C14.6189 18.3333 13.3851 19.5672 13.3851 21.0833C13.3851 22.5995 14.6189 23.8333 16.1351 23.8333C17.6513 23.8333 18.8851 22.5995 18.8851 21.0833C18.8851 19.5672 17.6513 18.3333 16.1351 18.3333Z" fill="#868889"/>
<path d="M12.4685 5.50033H5.13517C4.62917 5.50033 4.21851 5.08966 4.21851 4.58366C4.21851 4.07766 4.62917 3.66699 5.13517 3.66699H12.4685C12.9745 3.66699 13.3852 4.07766 13.3852 4.58366C13.3852 5.08966 12.9745 5.50033 12.4685 5.50033Z" fill="#868889"/>
<path d="M12.4683 11.0003H3.30168C2.79568 11.0003 2.38501 10.5897 2.38501 10.0837C2.38501 9.57766 2.79568 9.16699 3.30168 9.16699H12.4683C12.9743 9.16699 13.385 9.57766 13.385 10.0837C13.385 10.5897 12.9743 11.0003 12.4683 11.0003Z" fill="#868889"/>
<path d="M12.4684 16.5003H1.46842C0.962425 16.5003 0.551758 16.0897 0.551758 15.5837C0.551758 15.0777 0.962425 14.667 1.46842 14.667H12.4684C12.9744 14.667 13.3851 15.0777 13.3851 15.5837C13.3851 16.0897 12.9744 16.5003 12.4684 16.5003Z" fill="#868889"/>
<path d="M26.2183 22H19.8017C19.2957 22 18.885 21.5893 18.885 21.0833C18.885 20.5773 19.2957 20.1667 19.8017 20.1667H25.4868L29.6522 1.83333H8.80168C8.29568 1.83333 7.88501 1.42267 7.88501 0.916667C7.88501 0.410667 8.29568 0 8.80168 0H30.8017C31.0803 0 31.3444 0.1265 31.5185 0.344667C31.6927 0.561001 31.7587 0.847001 31.6964 1.11833L27.113 21.285C27.0177 21.7048 26.6455 22 26.2183 22Z" fill="#868889"/>
</svg>
